<svg width="70" height="20" viewBox="0 0 70 20" fill="none" xmlns="http://www.w3.org/2000/svg">
<path d="M5 4.37114e-07L1.25 1.09279e-07C0.416667 3.64262e-08 -3.88572e-08 0.444474 -1.16571e-07 1.33342C0.397825 1.33342 0.779356 1.54415 1.06066 1.91925C1.34197 2.29435 1.5 2.80309 1.5 3.33356C1.5 3.86402 1.34196 4.37277 1.06066 4.74786C0.779355 5.12296 0.397824 5.33369 -4.66286e-07 5.33369L-5.05104e-07 5.77772C0.397824 5.77772 0.779355 5.98845 1.06066 6.36354C1.34196 6.73864 1.5 7.24738 1.5 7.77785C1.5 8.30832 1.34196 8.81706 1.06066 9.19216C0.779355 9.56726 0.397824 9.77799 -8.54819e-07 9.77799L-8.93637e-07 10.222C0.397824 10.222 0.779355 10.4327 1.06066 10.8078C1.34196 11.1829 1.5 11.6917 1.5 12.2221C1.5 12.7526 1.34196 13.2614 1.06066 13.6365C0.779355 14.0116 0.397824 14.2223 -1.24335e-06 14.2223L-1.28217e-06 14.6663C0.397824 14.6663 0.779355 14.877 1.06066 15.2521C1.34196 15.6272 1.5 16.136 1.5 16.6664C1.5 17.1969 1.34196 17.7057 1.06066 18.0808C0.779354 18.4559 0.397823 18.6666 -1.63188e-06 18.6666C-1.7096e-06 19.5555 0.416665 20 1.25 20L5 20" fill="#F69113"/>
<path d="M65 20H68.75C69.5833 20 70 19.5555 70 18.6666C69.6022 18.6666 69.2206 18.4558 68.9393 18.0808C68.658 17.7057 68.5 17.1969 68.5 16.6664C68.5 16.136 68.658 15.6272 68.9393 15.2521C69.2206 14.877 69.6022 14.6663 70 14.6663V14.2223C69.6022 14.2223 69.2206 14.0116 68.9393 13.6365C68.658 13.2614 68.5 12.7526 68.5 12.2221C68.5 11.6917 68.658 11.1829 68.9393 10.8078C69.2206 10.4327 69.6022 10.222 70 10.222V9.77798C69.6022 9.77798 69.2206 9.56726 68.9393 9.19216C68.658 8.81706 68.5 8.30832 68.5 7.77785C68.5 7.24738 68.658 6.73864 68.9393 6.36354C69.2206 5.98845 69.6022 5.77772 70 5.77772V5.33369C69.6022 5.33369 69.2206 5.12296 68.9393 4.74786C68.658 4.37276 68.5 3.86402 68.5 3.33356C68.5 2.80309 68.658 2.29434 68.9393 1.91925C69.2206 1.54415 69.6022 1.33342 70 1.33342C70 0.444473 69.5833 0 68.75 0H65" fill="#F69113"/>
<rect x="5" width="60" height="20" fill="#F69113"/>
</svg>
